<svg width="50" height="50" viewBox="0 0 50 50" fill="none" xmlns="http://www.w3.org/2000/svg">
<path fill-rule="evenodd" clip-rule="evenodd" d="M24.9677 7.50011C20.7083 7.50068 16.588 9.01663 13.3439 11.7768C10.0999 14.5369 7.94357 18.3612 7.26083 22.5656C6.57809 26.7699 7.41342 31.08 9.6174 34.7249C11.8214 38.3698 15.2502 41.1116 19.2906 42.46C20.1877 42.6266 20.5721 42.0755 20.5721 41.6014V38.5514C15.587 39.6278 14.5361 36.1421 14.5361 36.1421C14.1856 35.0436 13.4478 34.11 12.4601 33.515C10.8326 32.4129 12.5882 32.4257 12.5882 32.4257C13.1567 32.506 13.6993 32.7152 14.1746 33.0372C14.6499 33.3593 15.0454 33.7857 15.3307 34.2839C15.8271 35.1742 16.6567 35.831 17.6372 36.1097C18.6177 36.3885 19.6688 36.2665 20.5593 35.7705C20.6317 34.8612 21.0325 34.0093 21.687 33.374C17.7143 32.9127 13.5237 31.3748 13.5237 24.5059C13.4947 22.7219 14.1558 20.9956 15.3691 19.6874C14.82 18.1421 14.8842 16.4451 15.5485 14.9457C15.5485 14.9457 17.0479 14.4588 20.4824 16.7783C23.419 15.9773 26.5165 15.9773 29.453 16.7783C32.8747 14.4588 34.3741 14.9457 34.3741 14.9457C35.0385 16.4451 35.1027 18.1421 34.5535 19.6874C35.7668 20.9956 36.4279 22.7219 36.3989 24.5059C36.3989 31.4005 32.2083 32.9127 28.21 33.3612C28.6383 33.7953 28.9686 34.3162 29.1786 34.8888C29.3886 35.4613 29.4734 36.0722 29.4274 36.6803V41.6014C29.4274 42.1909 29.7478 42.6394 30.7089 42.46C34.7546 41.1099 38.187 38.3628 40.3906 34.7112C42.5943 31.0596 43.425 26.7425 42.7339 22.5339C42.0427 18.3253 39.8749 14.5005 36.6191 11.7455C33.3634 8.99047 29.2327 7.48537 24.9677 7.50011Z" fill="black"/>
</svg>
