<svg width="50" height="50" viewBox="0 0 50 50" fill="none" xmlns="http://www.w3.org/2000/svg">
<path d="M42.5 25C42.5 29.6413 40.6563 34.0925 37.3744 37.3744C34.0925 40.6563 29.6413 42.5 25 42.5C20.3587 42.5 15.9075 40.6563 12.6256 37.3744C9.34374 34.0925 7.5 29.6413 7.5 25C7.5 20.3587 9.34374 15.9075 12.6256 12.6256C15.9075 9.34374 20.3587 7.5 25 7.5C29.6413 7.5 34.0925 9.34374 37.3744 12.6256C40.6563 15.9075 42.5 20.3587 42.5 25ZM26.0938 17.3438C26.0938 17.0537 25.9785 16.7755 25.7734 16.5704C25.5683 16.3652 25.2901 16.25 25 16.25C24.7099 16.25 24.4317 16.3652 24.2266 16.5704C24.0215 16.7755 23.9062 17.0537 23.9062 17.3438V30.0159L19.2119 25.3194C19.0065 25.114 18.7279 24.9986 18.4375 24.9986C18.1471 24.9986 17.8685 25.114 17.6631 25.3194C17.4577 25.5248 17.3424 25.8033 17.3424 26.0938C17.3424 26.3842 17.4577 26.6627 17.6631 26.8681L24.2256 33.4306C24.3272 33.5325 24.4479 33.6133 24.5808 33.6684C24.7137 33.7236 24.8561 33.752 25 33.752C25.1439 33.752 25.2863 33.7236 25.4192 33.6684C25.5521 33.6133 25.6728 33.5325 25.7744 33.4306L32.3369 26.8681C32.5423 26.6627 32.6576 26.3842 32.6576 26.0938C32.6576 25.8033 32.5423 25.5248 32.3369 25.3194C32.1315 25.114 31.8529 24.9986 31.5625 24.9986C31.2721 24.9986 30.9935 25.114 30.7881 25.3194L26.0938 30.0159V17.3438Z" fill="black"/>
</svg>
