<svg width="50" height="50" viewBox="0 0 50 50" fill="none" xmlns="http://www.w3.org/2000/svg">
<path fill-rule="evenodd" clip-rule="evenodd" d="M24.9678 7.50011C20.7084 7.50068 16.5881 9.01663 13.344 11.7768C10.0999 14.5369 7.94365 18.3612 7.26091 22.5656C6.57816 26.7699 7.4135 31.08 9.61748 34.7249C11.8215 38.3698 15.2503 41.1116 19.2907 42.46C20.1877 42.6266 20.5722 42.0755 20.5722 41.6014V38.5514C15.5871 39.6278 14.5362 36.1421 14.5362 36.1421C14.1857 35.0436 13.4479 34.11 12.4602 33.515C10.8326 32.4129 12.5883 32.4257 12.5883 32.4257C13.1568 32.506 13.6994 32.7152 14.1747 33.0372C14.65 33.3593 15.0454 33.7857 15.3308 34.2839C15.8272 35.1742 16.6568 35.831 17.6373 36.1097C18.6178 36.3885 19.6688 36.2665 20.5594 35.7705C20.6317 34.8612 21.0326 34.0093 21.6871 33.374C17.7144 32.9127 13.5238 31.3748 13.5238 24.5059C13.4948 22.7219 14.1559 20.9956 15.3692 19.6874C14.82 18.1421 14.8842 16.4451 15.5486 14.9457C15.5486 14.9457 17.048 14.4588 20.4825 16.7783C23.4191 15.9773 26.5166 15.9773 29.4531 16.7783C32.8748 14.4588 34.3742 14.9457 34.3742 14.9457C35.0385 16.4451 35.1028 18.1421 34.5536 19.6874C35.7669 20.9956 36.428 22.7219 36.399 24.5059C36.399 31.4005 32.2084 32.9127 28.2101 33.3612C28.6384 33.7953 28.9686 34.3162 29.1787 34.8888C29.3887 35.4613 29.4735 36.0722 29.4275 36.6803V41.6014C29.4275 42.1909 29.7479 42.6394 30.709 42.46C34.7547 41.1099 38.1871 38.3628 40.3907 34.7112C42.5944 31.0596 43.4251 26.7425 42.7339 22.5339C42.0428 18.3253 39.875 14.5005 36.6192 11.7455C33.3635 8.99047 29.2328 7.48537 24.9678 7.50011Z" fill="black"/>
</svg>
