<svg width="50" height="50" viewBox="0 0 50 50" fill="none" xmlns="http://www.w3.org/2000/svg">
<path d="M9.83333 7.5C8.90507 7.5 8.01483 7.86875 7.35845 8.52513C6.70208 9.1815 6.33333 10.0717 6.33333 11L6.33333 15.6667C6.33333 16.5949 6.70208 17.4852 7.35845 18.1415C8.01483 18.7979 8.90507 19.1667 9.83333 19.1667H40.1667C41.0949 19.1667 41.9852 18.7979 42.6415 18.1415C43.2979 17.4852 43.6667 16.5949 43.6667 15.6667V11C43.6667 10.0717 43.2979 9.1815 42.6415 8.52513C41.9852 7.86875 41.0949 7.5 40.1667 7.5H9.83333ZM12.1667 12.1667H19.1667C19.4761 12.1667 19.7728 12.2896 19.9916 12.5084C20.2104 12.7272 20.3333 13.0239 20.3333 13.3333C20.3333 13.6428 20.2104 13.9395 19.9916 14.1583C19.7728 14.3771 19.4761 14.5 19.1667 14.5H12.1667C11.8572 14.5 11.5605 14.3771 11.3417 14.1583C11.1229 13.9395 11 13.6428 11 13.3333C11 13.0239 11.1229 12.7272 11.3417 12.5084C11.5605 12.2896 11.8572 12.1667 12.1667 12.1667ZM35.3297 13.163C35.2479 13.0814 35.1921 12.9774 35.1695 12.8641C35.147 12.7508 35.1585 12.6333 35.2027 12.5266C35.247 12.4199 35.3219 12.3287 35.418 12.2646C35.5142 12.2006 35.6271 12.1665 35.7427 12.1667H37.5907C37.7062 12.1665 37.8192 12.2006 37.9153 12.2646C38.0114 12.3287 38.0863 12.4199 38.1306 12.5266C38.1748 12.6333 38.1864 12.7508 38.1638 12.8641C38.1412 12.9774 38.0855 13.0814 38.0037 13.163L37.0797 14.087C37.0255 14.1413 36.9611 14.1844 36.8902 14.2138C36.8194 14.2432 36.7434 14.2584 36.6667 14.2584C36.5899 14.2584 36.514 14.2432 36.4431 14.2138C36.3722 14.1844 36.3078 14.1413 36.2537 14.087L35.3297 13.163ZM6.33333 26.1667C6.33333 24.929 6.82499 23.742 7.70016 22.8668C8.57533 21.9917 9.76232 21.5 11 21.5H39C40.2377 21.5 41.4247 21.9917 42.2998 22.8668C43.175 23.742 43.6667 24.929 43.6667 26.1667V37.8333C43.6667 39.071 43.175 40.258 42.2998 41.1332C41.4247 42.0083 40.2377 42.5 39 42.5H11C9.76232 42.5 8.57533 42.0083 7.70016 41.1332C6.82499 40.258 6.33333 39.071 6.33333 37.8333V26.1667ZM8.66666 33.1667V37.8333C8.66666 38.4522 8.91249 39.0457 9.35008 39.4832C9.78766 39.9208 10.3812 40.1667 11 40.1667H39C39.6188 40.1667 40.2123 39.9208 40.6499 39.4832C41.0875 39.0457 41.3333 38.4522 41.3333 37.8333V33.1667H8.66666ZM41.3333 30.8333V26.1667C41.3333 25.5478 41.0875 24.9543 40.6499 24.5168C40.2123 24.0792 39.6188 23.8333 39 23.8333H11C10.3812 23.8333 9.78766 24.0792 9.35008 24.5168C8.91249 24.9543 8.66666 25.5478 8.66666 26.1667V30.8333H41.3333ZM11 27.3333C11 27.0239 11.1229 26.7272 11.3417 26.5084C11.5605 26.2896 11.8572 26.1667 12.1667 26.1667H33.1667C33.4761 26.1667 33.7728 26.2896 33.9916 26.5084C34.2104 26.7272 34.3333 27.0239 34.3333 27.3333C34.3333 27.6428 34.2104 27.9395 33.9916 28.1583C33.7728 28.3771 33.4761 28.5 33.1667 28.5H12.1667C11.8572 28.5 11.5605 28.3771 11.3417 28.1583C11.1229 27.9395 11 27.6428 11 27.3333ZM11 36.6667C11 36.3572 11.1229 36.0605 11.3417 35.8417C11.5605 35.6229 11.8572 35.5 12.1667 35.5H26.1667C26.4761 35.5 26.7728 35.6229 26.9916 35.8417C27.2104 36.0605 27.3333 36.3572 27.3333 36.6667C27.3333 36.9761 27.2104 37.2728 26.9916 37.4916C26.7728 37.7104 26.4761 37.8333 26.1667 37.8333H12.1667C11.8572 37.8333 11.5605 37.7104 11.3417 37.4916C11.1229 37.2728 11 36.9761 11 36.6667Z" fill="black"/>
</svg>
